<?xml version="1.0" standalone="no"?><!DOCTYPE svg PUBLIC "-//W3C//DTD SVG 1.1//EN" "http://www.w3.org/Graphics/SVG/1.1/DTD/svg11.dtd"><svg t="1763746449865" class="icon" viewBox="0 0 1024 1024" version="1.1" xmlns="http://www.w3.org/2000/svg" p-id="39277" xmlns:xlink="http://www.w3.org/1999/xlink" width="200" height="200"><path d="M512 20.533895a483.705263 483.705263 0 0 1 351.124211 150.366316 53.894737 53.894737 0 1 1-78.039579 74.374736A377.263158 377.263158 0 1 0 889.263158 505.640421a53.894737 53.894737 0 0 1 107.789474 0 485.052632 485.052632 0 1 1-485.052632-485.052632z" fill="#3A465A" p-id="39278"></path><path d="M458.105263 357.376a40.421053 40.421053 0 0 1 40.04379 34.923789l0.377263 5.497264v175.157894H673.684211a40.421053 40.421053 0 0 1 5.497263 80.464842l-5.497263 0.377264H458.105263a40.421053 40.421053 0 0 1-40.421052-40.421053v-215.578947a40.421053 40.421053 0 0 1 40.421052-40.421053z" fill="#00B388" p-id="39279"></path><path d="M856.387368 0c29.749895 0 53.894737 28.941474 53.894737 64.673684v194.021053l-0.215579 6.629052 0.215579 4.149895c0 12.126316-4.850526 23.336421-12.934737 32.336842l-4.311579 4.311579a49.259789 49.259789 0 0 1-36.648421 17.246316l-4.149894-0.269474L845.608421 323.368421h-194.021053c-35.732211 0-64.673684-24.144842-64.673684-53.894737s28.941474-53.894737 64.673684-53.894737h150.905264V64.673684c0-35.732211 24.090947-64.673684 53.894736-64.673684z" fill="#3A465A" p-id="39280"></path></svg>