<?xml version="1.0" standalone="no"?><!DOCTYPE svg PUBLIC "-//W3C//DTD SVG 1.1//EN" "http://www.w3.org/Graphics/SVG/1.1/DTD/svg11.dtd"><svg t="1763746425336" class="icon" viewBox="0 0 1024 1024" version="1.1" xmlns="http://www.w3.org/2000/svg" p-id="36992" xmlns:xlink="http://www.w3.org/1999/xlink" width="200" height="200"><path d="M183.296 858.624c-73.728 0-133.632-59.904-133.632-133.632V298.496c0-72.192 60.928-133.632 133.632-133.632H855.04c72.192 0 133.632 60.928 133.632 133.632v426.496c0 73.728-59.904 133.632-133.632 133.632H183.296z" fill="#266296" p-id="36993"></path><path d="M483.328 644.608c-7.168 0-15.36-2.048-21.504-5.12-13.824-7.68-22.528-22.016-22.528-37.376V423.936c0-16.896 8.704-31.232 22.528-37.376h0.512c6.656-3.584 13.312-5.12 20.48-5.12 8.192 0 16.384 2.56 23.552 7.168L646.656 476.16c12.8 8.192 19.456 20.992 19.456 37.888 0 15.36-7.168 28.672-19.968 37.888l-140.288 86.016c-5.632 4.608-13.312 6.656-22.528 6.656z" fill="#FFFFFF" p-id="36994"></path></svg>