<?xml version="1.0" standalone="no"?><!DOCTYPE svg PUBLIC "-//W3C//DTD SVG 1.1//EN" "http://www.w3.org/Graphics/SVG/1.1/DTD/svg11.dtd"><svg t="1763746433787" class="icon" viewBox="0 0 1024 1024" version="1.1" xmlns="http://www.w3.org/2000/svg" p-id="38255" xmlns:xlink="http://www.w3.org/1999/xlink" width="200" height="200"><path d="M900.662 847.752L564.915 511.98l60.693-60.675C743.969 553.326 896.079 587.991 1024 551.834c-8.195 106.383-49.393 210.393-123.338 295.918z m-777.36 0C50.502 763.572 9.285 661.448 0.218 556.83c104.376-39.729 236.966-13.497 340.628 73.41L123.302 847.75z m506.9-506.921C543.279 237.112 517.456 104.684 557.318 0.23 661.82 9.381 763.707 50.62 847.767 123.3L630.203 340.83zM393.775 683.17c86.945 103.699 112.778 236.233 72.947 340.622-104.491-9.193-206.42-50.391-290.49-123.09l217.543-217.531z m629.962-216.606c-104.384 39.913-236.85 14.144-340.615-72.783L900.685 176.25c72.632 83.988 113.879 185.858 123.051 290.314zM471.736 0c-36.042 127.939-1.029 280.074 100.944 398.4l-60.693 60.672L176.23 123.32C261.652 49.446 365.524 8.27 471.736 0zM123.302 176.25l335.77 335.73-60.692 60.692C280.049 470.7 127.94 435.82 0 471.916c8.246-106.343 49.431-210.25 123.302-295.665zM552.146 1024c36.065-127.933 1.144-280.072-100.83-398.397l60.681-60.672L847.77 900.68c-85.48 73.9-189.374 115.05-295.624 123.32z" fill="#A689CB" p-id="38256"></path></svg>