<?xml version="1.0" standalone="no"?><!DOCTYPE svg PUBLIC "-//W3C//DTD SVG 1.1//EN" "http://www.w3.org/Graphics/SVG/1.1/DTD/svg11.dtd"><svg t="1763458250832" class="icon" viewBox="0 0 1024 1024" version="1.1" xmlns="http://www.w3.org/2000/svg" p-id="4171" xmlns:xlink="http://www.w3.org/1999/xlink" width="200" height="200"><path d="M1024 275.7632c0 95.744-81.408 173.3632-181.76 173.3632-100.4544 0-181.8112-77.6192-181.8112-173.3632S741.8368 102.4 842.1376 102.4C942.6944 102.4 1024 180.0192 1024 275.7632z m-158.4128 40.2944a17.5616 17.5616 0 0 0 0.768-7.5264l-9.1648-71.2192a25.3952 25.3952 0 0 0-7.8336-15.1552 30.5152 30.5152 0 0 0-16.384-7.8848 32.3072 32.3072 0 0 0-18.3296 2.4576c-5.632 2.56-10.24 6.7584-13.056 11.8784l-49.1008 89.344a7.8336 7.8336 0 0 0-0.8192 6.656c0.3584 1.1264 1.024 2.2016 1.8432 3.072a9.3696 9.3696 0 0 0 3.0208 2.048 10.24 10.24 0 0 0 10.7008-1.536 8.4992 8.4992 0 0 0 2.0992-2.8672l12.9024-24.32h40.0896l1.1264 11.52c0.3072 2.56 1.1264 5.0176 2.5088 7.2192a19.968 19.968 0 0 0 5.3248 5.8368 22.4768 22.4768 0 0 0 15.872 4.2496 23.3472 23.3472 0 0 0 7.9872-2.2528 21.248 21.248 0 0 0 6.5024-4.8128 18.8416 18.8416 0 0 0 3.9424-6.656z m-44.8-28.416h-31.3856l26.368-49.7664 5.0176 49.7664zM418.7648 921.6h-2.3552c-58.112-0.768-100.608-39.7824-116.224-105.3184-26.9312-115.456-76.032-110.7456-143.872-103.7312l-1.1264 0.1024h-0.2048c-38.9632 3.84-82.4832 8.1408-115.712-20.3776C12.288 668.8256 0 629.8624 0 569.7536c0-184.064 157.0816-333.8752 350.208-333.8752 154.5216 0 292.8128 99.072 336.1792 241.0496a29.4912 29.4912 0 0 1-2.56 23.3472 35.0208 35.0208 0 0 1-19.456 15.6672 33.9456 33.9456 0 0 1-40.96-21.0432c-35.2256-115.456-147.3024-195.84-273.3056-195.84-157.0304 0-284.672 121.7024-284.672 271.5136 0 53.0432 11.4688 70.9632 18.0224 76.4416 10.5984 9.3696 33.7408 7.424 59.8016 5.1712l6.4512-0.512h0.256c69.5296-7.0656 174.848-17.664 214.8352 152.1664 12.6464 54.016 41.1136 56.064 52.0704 56.832l1.1264 0.0512h0.768c67.072-1.536 173.4656-96.7168 206.1824-217.6a33.792 33.792 0 0 1 40.1408-22.6304c8.5504 2.56 15.7184 7.8336 20.1216 14.9504 4.4032 7.0656 5.6832 15.36 3.584 23.2448C649.472 799.8976 524.3392 921.6 418.7648 921.6z m-302.336-393.216c-2.1504 10.24-1.024 20.7872 3.072 30.464 2.7648 6.4 6.8608 12.2368 12.0832 17.2032 7.4752 7.424 17.408 12.544 28.2624 14.592a58.368 58.368 0 0 0 50.432-14.5408c7.7824-7.68 13.056-17.152 15.2064-27.392a50.5856 50.5856 0 0 0-3.1744-30.464 54.528 54.528 0 0 0-40.3456-31.744 58.368 58.368 0 0 0-50.3808 14.5408c-7.7824 7.68-13.056 17.152-15.1552 27.3408zM302.592 443.4432a39.6288 39.6288 0 0 1-12.2368-28.1088c0-10.4448 4.352-20.48 12.1856-28.16a40.96 40.96 0 0 1 21.248-10.9056 43.776 43.776 0 0 1 37.8368 10.9056c7.7312 7.68 12.032 17.7152 12.032 28.16a39.6288 39.6288 0 0 1-12.032 28.1088 39.8336 39.8336 0 0 1-13.3632 8.704 43.52 43.52 0 0 1-32.256 0 39.8336 39.8336 0 0 1-13.4144-8.704z m167.7312 24.9344c0 8.6016 3.584 16.896 10.0864 23.1424 3.072 3.0208 6.8608 5.4272 11.008 7.0656a36.608 36.608 0 0 0 26.5216 0 33.5872 33.5872 0 0 0 11.0592-7.0656 32 32 0 0 0 10.0352-23.1424c0.0512-8.6016-3.584-16.896-10.0352-23.1936a35.1744 35.1744 0 0 0-37.5808-7.0656 33.5872 33.5872 0 0 0-11.008 7.0656 32 32 0 0 0-10.0864 23.1936zM373.248 681.728c5.632 3.7888 12.3904 5.8368 19.456 5.888l-0.1024-0.0512a42.496 42.496 0 0 0 8.6528-1.1776l1.9968-0.4096 352.5632-117.76a31.0784 31.0784 0 0 0 14.336-50.176 32.1024 32.1024 0 0 0-10.0864-7.424 35.328 35.328 0 0 0-25.4976-1.6896l-352.4608 117.8112a31.0784 31.0784 0 0 0-20.48 39.7824 29.44 29.44 0 0 0 11.6224 15.2064z m546.7136-358.2464a25.6 25.6 0 0 0 9.472-1.8432 23.4496 23.4496 0 0 0 7.8336-5.12 20.6336 20.6336 0 0 0 4.864-7.5776 19.0464 19.0464 0 0 0 1.024-8.704l-12.544-65.8432a20.48 20.48 0 0 0-8.5504-14.08 25.1904 25.1904 0 0 0-32.8192 3.1744 19.5584 19.5584 0 0 0-5.0688 15.4112l12.6464 65.8944c0.6144 5.12 3.328 9.8816 7.5776 13.312a24.832 24.832 0 0 0 15.5648 5.376z" p-id="4172" fill="#70c000"></path></svg>