<?xml version="1.0" standalone="no"?><!DOCTYPE svg PUBLIC "-//W3C//DTD SVG 1.1//EN" "http://www.w3.org/Graphics/SVG/1.1/DTD/svg11.dtd"><svg t="1764355074543" class="icon" viewBox="0 0 1129 1024" version="1.1" xmlns="http://www.w3.org/2000/svg" p-id="14249" xmlns:xlink="http://www.w3.org/1999/xlink" width="220.5078125" height="200"><path d="M1085.746304 669.340528c-24.371915 0-44.136029-19.843558-44.136029-44.330227v-288.119995c0-48.885065-39.598845-88.660454-88.272057-88.660454h-66.998491c-56.70597 0-107.074005-36.218025-125.346322-90.12577l-13.355562-39.404647a44.144856 44.144856 0 0 0-41.787992-30.047808H423.891246c-18.537132 0-35.220551 11.766665-41.514348 29.271014l-15.271066 42.494169c-18.89022 52.521874-68.940477 87.813043-124.543046 87.813042H176.544114c-48.673212 0-88.272057 39.775389-88.272057 88.660454v509.753477c0 48.885065 39.598845 88.660454 88.272057 88.660454h776.794104c48.673212 0 88.272057-39.775389 88.272057-88.660454 0-24.477841 19.764114-44.3214 44.136029-44.3214s44.136029 19.843558 44.136029 44.3214C1129.882333 944.42274 1050.684643 1023.955864 953.338218 1023.955864H176.544114c-97.346425 0-176.544114-79.533124-176.544114-177.312081V336.890306c0-97.770131 79.19769-177.312081 176.544114-177.312081h66.027499c18.528305 0 35.211724-11.766665 41.505522-29.271014l15.271066-42.494168C318.247248 35.291168 368.297504 0 423.900073 0h281.958606c56.70597 0 107.074005 36.218025 125.346321 90.12577l13.355562 39.413474a44.136029 44.136029 0 0 0 41.787992 30.038981H953.338218c97.346425 0 176.544114 79.533124 176.544115 177.312081v288.119995c0 24.486669-19.764114 44.330227-44.136029 44.330227zM743.692082 822.271868c-24.371915 0-44.136029-19.852386-44.136028-44.330228V644.959786h-269.229775V777.94164c0 24.477841-19.764114 44.330227-44.136029 44.330228s-44.136029-19.852386-44.136028-44.330228V493.211293C342.054222 369.127262 442.039981 268.17051 564.941166 268.17051s222.886945 100.947925 222.886945 225.031955V777.94164c0 24.477841-19.764114 44.330227-44.136029 44.330228z m-313.365803-265.963709h269.229775v-63.096866c0-75.207793-60.386914-136.380328-134.614888-136.380329-74.227973 0-134.614887 61.172536-134.614887 136.380329v63.096866z" fill="#4A90E2" p-id="14250"></path></svg>