<?xml version="1.0" standalone="no"?><!DOCTYPE svg PUBLIC "-//W3C//DTD SVG 1.1//EN" "http://www.w3.org/Graphics/SVG/1.1/DTD/svg11.dtd"><svg t="1701860783003" class="icon" viewBox="0 0 1024 1024" version="1.1" xmlns="http://www.w3.org/2000/svg" p-id="23725" xmlns:xlink="http://www.w3.org/1999/xlink" width="200" height="200"><path d="M592.4 746l-1.4-4.3c-3.2-7.6-7.9-14.1-13.2-19.7l72.6-181.8c7.8-0.4 15.6-1.9 23.2-5.2l4-2.2c31.3-16 45.5-53.6 31.4-86.4-4.1-9.5-10.3-17.5-17.6-23.9l-23.5 58.8c-1.2 3.1-3.1 5.7-5.4 7.8-6.2 5.8-15.3 8-23.8 4.7-5.7-2.3-10.1-6.7-12.3-12-1-2.4-1.5-5.1-1.7-7.8-0.1-3.1 0.2-6.3 1.5-9.4l23.5-58.8c-9.7-0.4-19.7 1.1-29.2 5.2-32.8 14.1-48.4 51-36.8 84.2l1.4 4.4c3.2 7.6 7.9 14.1 13.2 19.7L525.7 701c-7.8 0.4-15.6 1.9-23.1 5.2l-4 2.2c-31.3 16-45.5 53.5-31.4 86.3 4.1 9.5 10.3 17.5 17.6 23.9l23.5-58.8c1.2-3.1 3.2-5.7 5.4-7.8 6.2-5.8 15.3-8.1 23.8-4.7 5.8 2.3 10 6.7 12.3 12 1.1 2.4 1.6 5.1 1.7 7.8 0.1 3.1-0.2 6.4-1.5 9.4l-23.5 58.8c9.8 0.4 19.7-1.1 29.2-5.2 32.8-14 48.4-50.9 36.7-84.1z" fill="#414042" p-id="23726"></path><path d="M728.8 617.8c2.2 7.6 5.3 15 9.2 21.8l-11.1 14c-3.6 4.6-3.2 11.1 0.9 15.2l19.1 19.1c4.1 4.1 10.7 4.5 15.2 0.9l13.9-11c7.2 4.1 14.8 7.3 22.7 9.6l2.1 17.9c0.7 5.8 5.6 10.2 11.4 10.2h27.1c5.8 0 10.7-4.4 11.4-10.2l2-17.3c8.5-2.2 16.7-5.5 24.3-9.8l13.5 10.7c4.6 3.6 11.1 3.2 15.2-0.9l19.1-19.1c4.1-4.1 4.5-10.7 0.9-15.2l-10.5-13.3c4.3-7.5 7.7-15.5 10-23.9l16.1-1.9c5.8-0.7 10.2-5.6 10.2-11.4v-27.1c0-5.8-4.4-10.7-10.2-11.4l-15.9-1.9c-2.2-8.3-5.4-16.2-9.6-23.7l9.8-12.4c3.6-4.6 3.2-11.1-0.9-15.2l-19.1-19.1c-4.1-4.1-10.7-4.5-15.2-0.9l-12 9.5c-7.8-4.6-16.1-8.1-24.9-10.4l-1.8-15.5c-0.7-5.8-5.6-10.2-11.4-10.2h-27.1c-5.8 0-10.7 4.4-11.4 10.2l-1.8 15.5c-9 2.4-17.5 6-25.5 10.8l-12.5-9.9c-4.6-3.6-11.1-3.2-15.2 0.9l-19.1 19.1c-4.1 4.1-4.5 10.6-0.9 15.2l10.4 13.2c-4.2 7.5-7.4 15.5-9.4 23.9l-16.7 1.9c-5.8 0.7-10.2 5.6-10.2 11.4v27.1c0 5.8 4.4 10.7 10.2 11.4l17.7 2.2z m98-73.2c24.7 0 44.7 20.1 44.7 44.7 0 24.7-20.1 44.7-44.7 44.7-24.7 0-44.7-20.1-44.7-44.7s20.1-44.7 44.7-44.7z" fill="#808082" p-id="23727"></path><path d="M648.3 264.6c-5.7 0.6-10.1 5.4-10.2 11.1l-0.1 11.5c-0.1 5.8 4.2 10.7 9.9 11.4l8.4 1.1c1.4 5.1 3.4 10 6 14.6l-5.4 6.7c-3.6 4.5-3.3 10.9 0.7 15.1l8 8.2c4 4.1 10.5 4.6 15.1 1l6.8-5.2c4.8 2.8 9.8 5 15.1 6.6l0.9 8.7c0.6 5.7 5.4 10.1 11.2 10.2l11.5 0.1c5.8 0.1 10.7-4.2 11.4-9.9l1-8.2c5.7-1.4 11.2-3.5 16.3-6.3l6.3 5.1c4.5 3.6 10.9 3.4 15.1-0.7l8.2-8c4.1-4 4.6-10.5 1-15l-4.8-6.3c3-5 5.3-10.3 6.9-15.9l7.5-0.8c5.7-0.6 10.1-5.4 10.2-11.2l0.1-11.5c0.1-5.8-4.2-10.7-9.9-11.4l-7.3-1c-1.4-5.5-3.5-10.9-6.2-15.9l4.6-5.6c3.6-4.5 3.4-10.9-0.7-15.1l-8-8.2c-4-4.1-10.5-4.6-15.1-1l-5.5 4.2c-5.2-3.1-10.7-5.5-16.5-7.2l-0.7-7.1c-0.6-5.7-5.4-10.1-11.1-10.2l-11.5-0.1c-5.8-0.1-10.7 4.2-11.4 9.9l-0.9 7.1c-6 1.5-11.7 3.9-17.1 7l-5.7-4.6c-4.5-3.6-10.9-3.4-15.1 0.7l-8.2 8.1c-4.1 4-4.6 10.5-1 15.1l4.8 6.3c-2.8 5-5 10.3-6.5 15.9l-8.1 0.7z m74-13c16.5 0.2 29.6 13.7 29.5 30.2-0.2 16.5-13.7 29.6-30.2 29.5-16.5-0.2-29.6-13.7-29.5-30.2 0.2-16.5 13.8-29.7 30.2-29.5z" fill="#333951" p-id="23728"></path><path d="M360.9 457.5h100.4v102.6H360.9z" fill="#E7D5B6" p-id="23729"></path><path d="M560 332.9c-2 0-3.9 1-5.6 2.8-0.1-0.6-0.3-1.2-0.4-1.9-0.3-1.2-0.5-2.4-0.8-3.6-0.3-1.2-0.6-2.4-1-3.6l-0.9-3.3c-0.4-1.2-0.8-2.4-1.2-3.7-0.3-1-0.6-2-1-3-0.5-1.3-0.9-2.5-1.4-3.8-0.4-0.9-0.7-1.8-1.1-2.8-0.5-1.3-1.1-2.6-1.7-3.9-0.4-0.8-0.7-1.7-1.1-2.5-0.6-1.3-1.3-2.6-1.9-3.9-0.4-0.8-0.8-1.6-1.2-2.3-0.7-1.4-1.4-2.7-2.2-4-0.4-0.7-0.7-1.4-1.1-2.1-0.8-1.4-1.6-2.7-2.5-4-0.4-0.6-0.7-1.2-1.1-1.8-0.9-1.4-1.8-2.7-2.7-4.1-0.4-0.5-0.7-1.1-1.1-1.6-1-1.4-2-2.7-3-4.1-0.4-0.5-0.7-0.9-1.1-1.4-1.1-1.4-2.2-2.7-3.3-4-0.3-0.4-0.7-0.8-1-1.2-1.2-1.4-2.4-2.7-3.6-4-0.3-0.3-0.6-0.7-0.9-1-1.3-1.4-2.6-2.7-3.9-4-0.3-0.3-0.6-0.5-0.8-0.8-1.4-1.3-2.8-2.6-4.3-3.9-0.2-0.2-0.5-0.4-0.7-0.6-1.5-1.3-3-2.6-4.6-3.8-0.2-0.2-0.4-0.3-0.6-0.5-1.6-1.3-3.2-2.5-4.9-3.7-0.2-0.1-0.3-0.3-0.5-0.4-1.7-1.2-3.4-2.4-5.2-3.5-0.1-0.1-0.3-0.2-0.4-0.3-1.8-1.2-3.6-2.3-5.4-3.3-0.1-0.1-0.2-0.1-0.3-0.2-1.9-1.1-3.8-2.1-5.7-3.1-0.1 0-0.1-0.1-0.2-0.1-2-1-3.9-2-5.9-2.9 0 0-0.1 0-0.1-0.1-2-0.9-4.1-1.8-6.2-2.6h-0.1c-12.7-5.1-26.2-8.3-40.4-9.4-2.4-0.2-4.7-0.3-7.1-0.4-1.3 0-2.6-0.1-3.9-0.1-67.4 0-123.7 48.3-138.2 113.1-1-0.5-1.9-0.7-3-0.7-8.3 0-15 17.1-15 38.2s6.7 38.2 15 38.2c1.8 0 3.4-0.8 5-2.2 17.2 60.7 71.6 105 136.1 105 1.3 0 2.6-0.1 3.9-0.1 2.4-0.1 4.7-0.2 7.1-0.4 14.1-1.1 27.7-4.4 40.4-9.4h0.1c2.1-0.8 4.1-1.7 6.2-2.6 0.1 0 0.1 0 0.1-0.1 2-0.9 4-1.9 5.9-2.9 0.1-0.1 0.1-0.1 0.2-0.1 1.9-1 3.8-2 5.7-3.1 0.1-0.1 0.2-0.1 0.3-0.2 1.8-1.1 3.6-2.2 5.4-3.4 0.1-0.1 0.3-0.2 0.4-0.3 1.7-1.1 3.5-2.3 5.2-3.5 0.2-0.1 0.3-0.3 0.5-0.4 1.7-1.2 3.3-2.4 4.9-3.7 0.2-0.2 0.4-0.3 0.6-0.5 1.6-1.2 3.1-2.5 4.6-3.8 0.2-0.2 0.5-0.4 0.7-0.6 1.5-1.3 2.9-2.6 4.3-3.9 0.3-0.3 0.6-0.5 0.8-0.8 1.3-1.3 2.7-2.6 3.9-4 0.3-0.3 0.6-0.7 0.9-1 1.2-1.3 2.4-2.6 3.6-4 0.3-0.4 0.7-0.8 1-1.2 1.1-1.3 2.3-2.7 3.3-4 0.4-0.5 0.7-0.9 1.1-1.4 1-1.3 2.1-2.7 3-4.1 0.4-0.5 0.7-1.1 1.1-1.6 0.9-1.3 1.9-2.7 2.7-4.1 0.4-0.6 0.8-1.2 1.1-1.8 0.8-1.3 1.7-2.7 2.5-4 0.4-0.7 0.8-1.4 1.1-2.1 0.7-1.3 1.5-2.6 2.2-4 0.4-0.8 0.8-1.6 1.2-2.3 0.6-1.3 1.3-2.6 1.9-3.9 0.4-0.8 0.7-1.7 1.1-2.5 0.6-1.3 1.1-2.6 1.7-3.8 0.4-0.9 0.7-1.8 1.1-2.8 0.5-1.3 1-2.5 1.4-3.8 0.4-1 0.7-2 1-3.1l1.2-3.6 0.9-3.3c0.2-0.5 0.3-1.1 0.4-1.6 2.2 3.1 4.7 4.9 7.4 4.9 8.3 0 15-17.1 15-38.2 0.2-20.9-6.6-38-14.9-38z" fill="#FFEAC7" p-id="23730"></path><path d="M743.1 881.9c0-124.9-48.6-250.6-115.6-290.2-39.7-26.2-110.8-44.4-214.4-44.4-103 0-179.8 18.1-219.8 44-67.5 39.3-110.2 165.4-110.2 290.6v34.8h119.8v-34.8c0-82.4 26.6-133.8 43.2-159.6v194.4h332.4V729.3c18.3 27.6 44.7 77.1 44.7 152.6v34.8H743v-34.8z" fill="#404668" p-id="23731"></path><path d="M552.2 326.6l-1.5-4.8c-0.7-2.4-1.4-4.7-2.3-7-0.8-2-1.7-4-2.5-6-0.7-1.8-1.4-3.6-2.3-5.4-1.1-2.3-2.3-4.5-3.5-6.7-0.7-1.4-1.4-2.7-2.1-4.1-1.4-2.5-3-4.8-4.5-7.2-0.6-1-1.2-2-1.9-3-1.8-2.6-3.7-5-5.6-7.5-0.5-0.7-1-1.4-1.6-2.1-2.2-2.6-4.4-5.2-6.8-7.6-0.4-0.4-0.7-0.9-1.2-1.3-2.5-2.6-5.2-5.1-7.9-7.6-0.2-0.2-0.5-0.4-0.7-0.6-2.9-2.6-5.9-5-9-7.3l-0.2-0.2c-23.3-17.3-51.9-27.6-82.9-27.6-76.3 0-138.5 62-141.7 139.6 9-10.2 14.4-24.6 23.1-34.7 14.5-16.8 33-28.4 49.3-43.4 11.2-10.3 30.1-12 41 0 8.6 9.4 19.8 18.4 32.1 25.4 4.1 2.3 8.3 4.3 12.5 6.1 0.5 0.2 0.9 0.4 1.4 0.5 1.3 0.5 2.6 1 4 1.5 0.3 0.1 0.5 0.2 0.8 0.2 2.4 0.8 4.7 1.5 7.1 2.1 1 0.2 2 0.5 3 0.7 1 0.2 1.9 0.4 2.9 0.6 1.8 0.3 3.6 0.5 5.4 0.7 0.8 0.1 1.6 0.1 2.3 0.2 1.5 0.1 3 0.1 4.5 0.1h1.7c2-0.1 4-0.3 5.9-0.5 0.6-0.1 1.1-0.2 1.7-0.3 1.8-0.3 3.6-0.7 5.5-1.2 0.3-0.1 0.5-0.1 0.8-0.2 2-0.6 4-1.3 6-2.1l1.5-0.6c2-0.9 4-1.9 5.9-3.1 13.8-8.4 31.4-2.8 39.7 10.4 3.9 6.2 13.4 11.5 22.8 16.2-0.7-4.1-1.6-8.2-2.7-12.2z" fill="#603913" p-id="23732"></path><path d="M570.3 287.9c-0.2-1.2-0.4-2.3-0.8-3.5-2.5-8.1-9.3-32.3-9.3-41.2 0-68.7-64.3-124.4-143.6-124.4S273 174.5 273 243.2c0 7.7-7 31.4-11.9 44.7h309.2z" fill="#F1A240" p-id="23733"></path><path d="M414.5 163.9c20.4 0 37.1-16.7 37.1-37.1 0-20.4-16.7-37.1-37.1-37.1-20.5 0-37.1 16.7-37.1 37.1-0.1 20.4 16.6 37.1 37.1 37.1z" fill="#F1A240" p-id="23734"></path><path d="M331.8 142.7c12.9-8.2 27.5-14.6 43.2-18.7 1 2.5 1.6 5.3 1.6 8.2v99.9c0 12.3-10.1 22.4-22.4 22.4-12.3 0-22.4-10.1-22.4-22.4v-89.4zM454.3 123.1c15.5 3.6 29.9 9.4 42.8 17v92.1c0 12.3-10.1 22.4-22.4 22.4-12.3 0-22.4-10.1-22.4-22.4v-99.9c0-3.3 0.7-6.4 2-9.2zM579.2 289.9c0 6.6-5.2 12-11.6 12H263.8c-6.4 0-11.6-5.4-11.6-12s5.2-12 11.6-12h303.8c6.4 0 11.6 5.4 11.6 12z" fill="#D08D35" p-id="23735"></path><path d="M348.2 549.7l64.7 205.8 60-206.1s-9.4-2.2-56.8-2.2-67.9 2.5-67.9 2.5z" fill="#FFFFFF" p-id="23736"></path><path d="M444.5 542c0 11-15 19.9-33.4 19.9-18.5 0-33.4-8.9-33.4-19.9s15-19.9 33.4-19.9c18.4-0.1 33.4 8.8 33.4 19.9z" fill="#F56766" p-id="23737"></path><path d="M401.1 549.4l-10.4 135.4 22.1 70.2 21.4-69.9-12.1-135.3z" fill="#F56766" p-id="23738"></path><path d="M463.4 752.9h85.9v45.9h-85.9z" fill="#FFFFFF" p-id="23739"></path><path d="M472.9 549.4l52 52.2-112 153.9z" fill="#333951" p-id="23740"></path><path d="M348.4 549.6L303.8 602l109.4 154.1z" fill="#333951" p-id="23741"></path><path d="M407.8 754h10v162.9h-10z" fill="#333951" p-id="23742"></path></svg>