<?xml version="1.0" standalone="no"?><!DOCTYPE svg PUBLIC "-//W3C//DTD SVG 1.1//EN" "http://www.w3.org/Graphics/SVG/1.1/DTD/svg11.dtd"><svg t="1701860424298" class="icon" viewBox="0 0 1024 1024" version="1.1" xmlns="http://www.w3.org/2000/svg" p-id="6763" xmlns:xlink="http://www.w3.org/1999/xlink" width="200" height="200"><path d="M485.497904 707.806571h-54.41533v12.362562h54.41533v-12.362562z m87.807859 39.559994h-53.184293v13.603833h53.184293v-13.603833z m-89.039919 0h-53.18327v13.603833h53.18327v-13.603833z m89.039919-39.559994h-53.184293v12.362562h53.184293v-12.362562z m279.149744-21.719674c-57.764612-239.275595-155.708318-336.821235-179.134866-357.351827 4.113691 32.229029 12.024871 133.847427 13.861705 157.720137 0.385786 2.453888 0.531096 4.188392 0.38681 5.059226l-0.38681-5.059226c-4.846378-30.780027-48.104601-175.75284-48.104601-175.752839l21.058619 6.275937c-14.876826-9.281387-39.641859-24.532743-50.158377-29.855982-4.693906-2.38021-13.296841-4.578272-23.010063-6.488785-40.900525 36.989449-169.604816 124.654045-203.950042 208.915124 0-73.269747 115.391077-169.484066 174.09713-213.69294a759.52856 759.52856 0 0 0-20.045545-2.41091c-122.362862 77.606519-486.462371 260.788561-334.463538 548.246529 83.413781 143.468552 186.225355 135.609561 254.124792 135.609561 67.895343 0.002047 457.530434-15.245216 395.724786-271.214005zM614.114191 799.292192h-42.050722V786.925536h-140.980895v11.125385h-38.340213V679.372985h221.370806v119.919207zM413.768233 596.543511V568.111972h178.080861v28.431539H413.768233z m176.843684 11.130502v61.809741H416.239518v-61.809741h174.372399z m50.709939-8.65717h-38.340214V559.454802h-197.866486v38.319747h-38.340213v-69.227688h117.490901c-0.832971-4.109598-2.075265-9.05626-3.720742-14.832823-0.822738-3.282766-1.232061-5.348821-1.23206-6.181793h6.184862c25.540699-2.471284 38.743396-3.282766 39.577391-2.471284v2.471284c1.635243 9.079796 2.468215 16.070001 2.468215 21.013593h113.778346v70.471005z m-68.200288-353.171622c-1.196245 1.635243-2.837628 3.40454-4.887311 5.304819 4.946662 0.785899 11.582803 1.849114 18.790972 3.02694a344.446913 344.446913 0 0 1 3.551896-2.433422l-23.277146-96.30437 46.559408 100.235912-2.782369 2.536776c6.452969 1.119497 12.359492 2.187829 16.888645 3.082199l73.184813-66.545602-46.595224 81.196276c3.431146 2.706645 6.79373 5.559623 9.953699 8.361435l75.442226-26.664289-62.171991 39.154765a301.58164 301.58164 0 0 1 4.452405 4.516873l1.460258-2.403746 126.096906-56.994062s-23.282263-60.923558-56.256258-66.820871c-32.983205-5.895267-36.857443 0-36.857443 0l-81.479732-84.510766-65.951062-3.926426s-25.224498-25.554002-67.894319-25.554002c31.03483 41.271986 83.414805 176.883593 71.771627 184.741561z m-22.080902 386.546753h-97.692996v12.367679h97.692996v-12.367679z" fill="#FF4E41" p-id="6764"></path></svg>