<?xml version="1.0" standalone="no"?><!DOCTYPE svg PUBLIC "-//W3C//DTD SVG 1.1//EN" "http://www.w3.org/Graphics/SVG/1.1/DTD/svg11.dtd"><svg t="1701860381143" class="icon" viewBox="0 0 1024 1024" version="1.1" xmlns="http://www.w3.org/2000/svg" p-id="2986" xmlns:xlink="http://www.w3.org/1999/xlink" width="200" height="200"><path d="M697.22 146.22v40.578h24.804c33.138 0 60 26.862 60 60v47.442H805c21.538 0 40.416 11.354 51 28.398v-107.302c0-77.506-62.83-140.336-140.336-140.336h-39.478a130.56 130.56 0 0 1 21.034 71.22zM805 438.256h-26.748c-10.156 47.318-40.234 87.208-81.032 110.518v0.224H776c44.182 0 80-35.818 80-80v-59.142c-10.584 17.046-29.462 28.4-51 28.4z" fill="#A44F3E" p-id="2987"></path><path d="M401.734 438.256H375c-21.538 0-40.416-11.354-51-28.398V469c0 44.182 35.818 80 80 80h79.17c-40.996-23.278-71.242-63.284-81.436-110.744z" fill="#A44F3E" p-id="2988"></path><path d="M566 15h-110.78C382.75 15 324 73.75 324 146.22v176.418c10.584-17.044 29.462-28.398 51-28.398h24.136c5.468-27.504 29.73-48.24 58.84-48.24h92.622a50 50 0 0 0 40-20l14.402-19.202a50 50 0 0 1 40-20h52.22V146.22c0-72.47-58.75-131.22-131.22-131.22zM696.83 549h0.39v-0.224l-0.39 0.224z" fill="#BB5D4C" p-id="2989"></path><path d="M397.976 402.844V306c0-4.026 0.404-7.958 1.16-11.76H375c-33.138 0-60 26.862-60 60v24.018c0 33.138 26.862 60 60 60h26.748a168.648 168.648 0 0 1-3.772-35.414z" fill="#FFBD86" p-id="2990"></path><path d="M722.024 186.798H645a50 50 0 0 0-40 20L590.598 226a50 50 0 0 1-40 20h-92.622c-33.138 0-60 26.862-60 60v96.844c0 92.784 75.216 168 168 168h48.048c92.784 0 168-75.216 168-168v-156.048c0-33.136-26.864-59.998-60-59.998z" fill="#FED2A4" p-id="2991"></path><path d="M375 294.24h24.136l-0.002 0.006A59.632 59.632 0 0 1 408 272.802V146.22c0-72.472 58.75-131.22 131.22-131.22h-84C382.75 15 324 73.75 324 146.22v176.418c10.584-17.044 29.462-28.398 51-28.398z" fill="#A44F3E" p-id="2992"></path><path d="M846 605.248h-122v78.83c0 16.004-17.864 25.526-31.15 16.604l-69.886-46.934L590 766l-32.964-112.254-69.886 46.934c-13.286 8.924-31.15-0.598-31.15-16.604v-78.83h-122c-55.228 0-100 44.772-100 100V809h167.844a10 10 0 0 1 10 10v190H926c11.046 0 20-8.954 20-20V705.248c0-55.228-44.772-100-100-100z" fill="#8AC9FE" p-id="2993"></path><path d="M496 694.738V1009h44V665.188z" fill="#60B7FF" p-id="2994"></path><path d="M487.15 700.68c-13.286 8.924-31.15-0.598-31.15-16.604v-78.83h-122c-55.228 0-100 44.772-100 100V809h167.844a10 10 0 0 1 10 10v190H496V694.738z" fill="#A79BA7" p-id="2995"></path><path d="M314 809v-103.752c0-55.228 44.772-100 100-100h-80c-55.228 0-100 44.772-100 100V809z" fill="#918291" p-id="2996"></path><path d="M846 605.248h-122v78.83c0 16.004-17.864 25.526-31.15 16.604L684 694.738V1009h242c11.046 0 20-8.954 20-20V705.248c0-55.228-44.772-100-100-100z" fill="#A79BA7" p-id="2997"></path><path d="M648.342 567.326l-25.378 86.422 69.886 46.934c13.286 8.924 31.15-0.598 31.15-16.604V556c0-7.784-2.258-15.022-6.104-21.168-20.018 15.776-43.684 27.124-69.554 32.494zM462.104 534.832A39.758 39.758 0 0 0 456 556v128.078c0 16.004 17.864 25.526 31.15 16.604l69.886-46.934-25.378-86.422c-25.87-5.37-49.536-16.718-69.554-32.494z" fill="#60B7FF" p-id="2998"></path><path d="M614.024 570.844h-48.048c-11.762 0-23.238-1.22-34.318-3.52L590 766l58.342-198.674a168.694 168.694 0 0 1-34.318 3.518z" fill="#FFBD86" p-id="2999"></path><path d="M805 294.24h-24.976v108.606c0 12.154-1.35 23.994-3.842 35.412H805c33.138 0 60-26.862 60-60V354.24c0-33.138-26.862-60-60-60zM397.976 402.844V306c0-4.026 0.404-7.958 1.16-11.76H375c-33.138 0-60 26.862-60 60v24.018c0 33.138 26.862 60 60 60h26.748a168.648 168.648 0 0 1-3.772-35.414z" fill="#FFBD86" p-id="3000"></path><path d="M722.024 186.798H645a50 50 0 0 0-40 20L590.598 226a50 50 0 0 1-40 20h-92.622c-33.138 0-60 26.862-60 60v96.844c0 92.784 75.216 168 168 168h48.048c92.784 0 168-75.216 168-168v-156.048c0-33.136-26.864-59.998-60-59.998z" fill="#FED2A4" p-id="3001"></path><path d="M481.952 402.844V306c0-33.138 26.862-60 60-60h-83.976c-33.138 0-60 26.862-60 60v96.844c0 92.784 75.216 168 168 168h48.048c6.07 0 12.06-0.34 17.964-0.968-84.334-8.966-150.036-80.318-150.036-167.032z" fill="#FFBD86" p-id="3002"></path><path d="M411.844 1009H88a10 10 0 0 1-10-10v-90h333.844z" fill="#FFFFFF" p-id="3003"></path><path d="M161.752 999v-90H78v90a10 10 0 0 0 10 10h83.752a10 10 0 0 1-10-10z" fill="#F3F0F3" p-id="3004"></path><path d="M78 909h333.844v50H78z" fill="#FFFFFF" p-id="3005"></path><path d="M78 909h83.752v50H78z" fill="#F3F0F3" p-id="3006"></path><path d="M411.844 909H78v-90a10 10 0 0 1 10-10h313.844a10 10 0 0 1 10 10z" fill="#FFFFFF" p-id="3007"></path><path d="M171.752 809H88a10 10 0 0 0-10 10v90h83.752v-90a10 10 0 0 1 10-10z" fill="#F3F0F3" p-id="3008"></path><path d="M411.844 859H78v-40a10 10 0 0 1 10-10h313.844a10 10 0 0 1 10 10z" fill="#FFFFFF" p-id="3009"></path><path d="M171.752 809H88a10 10 0 0 0-10 10v40h83.752v-40a10 10 0 0 1 10-10z" fill="#F3F0F3" p-id="3010"></path><path d="M498.932 356.832a15 15 0 0 0 15-15v-43.434a15 15 0 0 0-30 0v43.434a15 15 0 0 0 15 15zM681.068 356.832a15 15 0 0 0 15-15v-43.434a15 15 0 0 0-30 0v43.434a15 15 0 0 0 15 15zM579.944 417.382a14.946 14.946 0 0 0 10.05 3.87 15 15 0 0 0 10.06-26.13l-16.134-14.578 19.74-43.536a15.002 15.002 0 0 0-27.322-12.39l-24.264 53.514a14.996 14.996 0 0 0 3.606 17.324zM550.538 496.8h78.926a15 15 0 0 0 0-30h-78.926a15 15 0 0 0 0 30z" p-id="3011"></path><path d="M846 590.248h-107V564H776c52.382 0 95-42.618 95-95v-55.15a74.528 74.528 0 0 0 9-35.592V354.24a74.528 74.528 0 0 0-9-35.592v-103.31C871 129.684 801.316 60 715.664 60h-31.67C657.366 23.658 614.404 0 566 0h-110.78c-80.626 0-146.22 65.594-146.22 146.22v172.426a74.528 74.528 0 0 0-9 35.592v24.018a74.528 74.528 0 0 0 9 35.592V469c0 52.382 42.618 95 95 95h37v26.248H334c-63.412 0-115 51.588-115 115V794H88c-13.786 0-25 11.214-25 25v180c0 13.786 11.214 25 25 25h838c19.298 0 35-15.702 35-35V705.248c0-63.412-51.588-115-115-115z m-5-121.248c0 35.84-29.16 65-65 65h-34.512c22.584-21.954 39.536-49.664 48.458-80.744h15.054a74.53 74.53 0 0 0 36-9.226zM715.664 90c69.11 0 125.336 56.226 125.336 125.336v73.13a74.53 74.53 0 0 0-36-9.226h-7.976v-32.442c0-41.356-33.644-75-75-75h-9.802V146.22A145.414 145.414 0 0 0 700.966 90zM339 146.22c0-64.084 52.136-116.22 116.22-116.22H566c64.084 0 116.22 52.136 116.22 116.22v25.576H645c-20.35 0-39.79 9.72-52 26l-14.402 19.204a35.17 35.17 0 0 1-28 14h-92.622c-31.93 0-59.246 20.064-70.046 48.24H375a74.53 74.53 0 0 0-36 9.226zM330 378.256V354.24c0-24.814 20.186-45 45-45h7.976v93.606c0 6.9 0.396 13.708 1.144 20.412h-9.12c-24.814-0.002-45-20.188-45-45.002zM404 534c-35.84 0-65-29.16-65-65v-24.97a74.53 74.53 0 0 0 36 9.226h15.048c8.924 31.076 25.88 58.79 48.464 80.744z m8.976-131.156V306c0-24.814 20.186-45 45-45h92.622c20.35 0 39.79-9.72 52-26l14.402-19.204c6.576-8.766 17.042-14 28-14h77.024c24.814 0 45 20.186 45 45V326a15 15 0 0 0 30 0v-16.76h7.976c24.814 0 45 20.186 45 45v24.018c0 24.814-20.186 45-45 45h-9.114c0.748-6.704 1.136-13.512 1.136-20.412V396a15 15 0 0 0-30 0v6.844c0 84.364-68.636 153-153 153h-48.046c-84.364 0-153-68.636-153-153zM709 559.216v124.862c0 2.612-1.66 3.886-2.648 4.412s-2.972 1.194-5.138-0.26l-60.758-40.804 19.824-67.506a182.112 182.112 0 0 0 48.72-20.704z m-169.454 88.208l-60.758 40.804c-2.166 1.456-4.148 0.788-5.138 0.26-0.99-0.526-2.648-1.8-2.648-4.412v-124.862a182.028 182.028 0 0 0 48.722 20.702zM396.844 994H93v-20H284a15 15 0 0 0 0-30H93v-20h303.844v20H354a15 15 0 0 0 0 30h42.844z m0-100H93v-20h303.844z m0-50H93v-20h303.844z m84.156 150h-54.156v-175c0-13.786-11.214-25-25-25H249v-88.752c0-46.87 38.13-85 85-85h107v63.83a34.934 34.934 0 0 0 18.538 30.886 34.92 34.92 0 0 0 21.462 3.746z m94 0h-64V702.732l37.41-25.124 26.59 90.55z m-22.414-408.648c4.424 0.322 8.888 0.492 13.392 0.492h48.046c4.504 0 8.968-0.17 13.392-0.492L590 712.762zM931 989c0 2.756-2.244 5-5 5H699v-170a15 15 0 0 0-30 0v170h-64V768.158l26.59-90.55 37.41 25.124V754a15 15 0 0 0 30 0v-35.274a34.976 34.976 0 0 0 21.462-3.762 34.936 34.936 0 0 0 18.538-30.886v-63.83H846c46.87 0 85 38.13 85 85z" p-id="3012"></path></svg>