<?xml version="1.0" standalone="no"?><!DOCTYPE svg PUBLIC "-//W3C//DTD SVG 1.1//EN" "http://www.w3.org/Graphics/SVG/1.1/DTD/svg11.dtd"><svg t="1763458588085" class="icon" viewBox="0 0 1677 1024" version="1.1" xmlns="http://www.w3.org/2000/svg" p-id="5783" xmlns:xlink="http://www.w3.org/1999/xlink" width="327.5390625" height="200"><path d="M127.7598 109l577-109v1024l-577-109V109z m87.75 549.125c-0.375 22.75 16.75 42 39.375 44.25L540.5098 738c32.875 4.125 69.875-17.5 69.875-50.75V336.375c0-46-34.125-60.625-73.125-54.875L255.7598 319.875c-25 6.5-40.25 35.125-40.25 60.375v277.875zM268.5098 345.5l268.75-38.375c25.625-4.375 43.875 1.625 43.875 43.875v175.5l-66.25-33.125c-6.25-3.75-14.25-3-19.75 1.75L420.3848 555.375h-1.125l-98.25-94.75c-1-0.625-2.25-1.125-3.375-1.5-0.5 0-0.875-0.375-1.25-0.5-1.125-0.125-2.25-0.125-3.375 0h-1.5c-0.625 0-1.125 0.625-1.625 0.75-1 0.25-2 0.625-2.875 1.25l-61.875 51.25V380.25c-0.75-15.625 9-29.75 23.75-34.75h-0.375z m204.125 107.5c14 0.25 27.5-5.375 37.25-15.375 9.75-10 15.125-23.625 14.625-37.5-0.5-14.125-6.75-27.375-17.125-36.875-10.5-9.5-24.25-14.375-38.375-13.5-27.625 1.875-48.75 25.25-47.75 52.875 1.125 27.625 23.5 49.625 51.25 50.25l0.125 0.125z m0 0" fill="#ffffff" p-id="5784"></path><path d="M756.7598 215.125h299.625v593.625H756.7598z" fill="#ffffff" p-id="5785"></path><path d="M756.7598 117V171.75h343v680.5H756.7598v54.75h395v-790h-395z m0 0" fill="#ffffff" p-id="5786"></path></svg>