<?xml version="1.0" standalone="no"?><!DOCTYPE svg PUBLIC "-//W3C//DTD SVG 1.1//EN" "http://www.w3.org/Graphics/SVG/1.1/DTD/svg11.dtd"><svg t="1764355945853" class="icon" viewBox="0 0 1025 1024" version="1.1" xmlns="http://www.w3.org/2000/svg" p-id="15368" xmlns:xlink="http://www.w3.org/1999/xlink" width="200.1953125" height="200"><path d="M1024.171545 563.931509a254.92176 254.92176 0 0 1-102.237443 204.124356L907.328753 775.709068l-20.31604 14.605349a254.410573 254.410573 0 0 1-118.434775 29.210698c-42.764462 0-83.002198 18.563398-118.434774 0h-308.172862c-26.494103 9.289002-54.857691-14.605349-84.521154-14.605349a255.593606 255.593606 0 1 1 37.769432-508.090878 277.165707 277.165707 0 0 1-1.25606-25.004358 270.198955 270.198955 0 1 1 536.454466 44.34184A255.476763 255.476763 0 0 1 1024.171545 563.931509zM250.088052 848.735813c28.232139 0 43.816047 81.307977 43.816046 109.540117a51.118721 51.118721 0 0 1-102.237442 0c0-28.232139 30.189256-109.540117 58.421396-109.540117z m496.581863 14.605349c28.232139 0 43.816047 81.307977 43.816047 109.540117a51.118721 51.118721 0 0 1-102.237443 0c0-28.232139 30.189256-109.540117 58.421396-109.540117z m-233.685583-14.605349c28.232139 0 43.816047 81.307977 43.816047 109.540117a51.118721 51.118721 0 0 1-102.237442 0c0-28.232139 30.189256-109.540117 58.421395-109.540117z" fill="#299CF5" p-id="15369"></path></svg>