<?xml version="1.0" standalone="no"?><!DOCTYPE svg PUBLIC "-//W3C//DTD SVG 1.1//EN" "http://www.w3.org/Graphics/SVG/1.1/DTD/svg11.dtd"><svg t="1763196579061" class="icon" viewBox="0 0 1024 1024" version="1.1" xmlns="http://www.w3.org/2000/svg" p-id="17209" width="200" height="200" xmlns:xlink="http://www.w3.org/1999/xlink"><path d="M998.50842 862.4c36.1 39.1 33.6 100.1-5.6 136.1-36.9 34-93.7 34-130.6 0L580.20842 716.4c-183.1 107.8-419 46.8-526.9-136.3C-54.59158 397 6.50842 161.1 189.60842 53.3s419.1-46.8 527 136.3c71 120.6 71 270.2-0.1 390.7l282 282.1zM384.90842 96.2c-159.7 0-289.1 129.4-289.1 289.1s129.4 289.1 289.1 289.1S674.00842 544.9 674.00842 385.2c0.3-159.4-128.8-288.8-288.2-289.1-0.3 0.1-0.6 0.1-0.9 0.1z" fill="#70c000" p-id="17210"></path></svg>