<?xml version="1.0" standalone="no"?><!DOCTYPE svg PUBLIC "-//W3C//DTD SVG 1.1//EN" "http://www.w3.org/Graphics/SVG/1.1/DTD/svg11.dtd"><svg t="1702032519876" class="icon" viewBox="0 0 1024 1024" version="1.1" xmlns="http://www.w3.org/2000/svg" p-id="25768" xmlns:xlink="http://www.w3.org/1999/xlink" width="200" height="200"><path d="M999.424 292.181333L712.192 515.413333l-94.094222-94.321777L838.371556 119.182222l176.071111-20.053333s11.662222 2.104889 9.216 8.504889l-24.234667 184.547555z" fill="#FFCACA" p-id="25769"></path><path d="M990.634667 107.633778l-24.234667 184.547555-287.232 223.232-94.094222-94.321777L805.347556 119.182222l176.071111-20.053333s11.662222 2.104889 9.216 8.504889z" fill="#F54A3A" p-id="25770"></path><path d="M938.808889 146.659556l-110.222222 8.078222 87.808 22.840889 22.897777 88.120889 6.855112-112.270223c1.877333-5.063111-7.338667-6.769778-7.338667-6.769777z" fill="#FFFFFF" p-id="25771"></path><path d="M561.408 485.262222l-101.575111 51.342222 101.546667-101.603555 101.575111 101.603555z" fill="#FF7700" p-id="25772"></path><path d="M258.531556 770.673778l99.612444-99.896889-83.000889-83.228445 38.741333-38.826666 232.448 233.045333-38.741333 38.826667-83.029333-83.228445-99.612445 99.868445 38.741334 38.855111-27.676445 27.761778-149.447111-149.845334 27.676445-27.733333z" fill="#F54A3A" p-id="25773"></path><path d="M574.833778 654.023111l-121.998222-41.699555 11.576888-52.394667 90.197334 46.648889 13.226666-60.899556 127.914667 74.865778-102.656-24.632889-18.261333 58.112zM561.408 712.96l101.546667-51.313778-101.546667 101.603556-101.575111-101.603556z" fill="#FF7700" p-id="25774"></path><path d="M850.261333 587.719111l-82.858666 82.858667 99.413333 99.470222 38.684444-38.684444 27.591112 27.619555-149.105778 149.191111-27.619556-27.619555 44.174222-44.202667-99.413333-99.470222-82.830222 82.887111-38.684445-38.684445 231.992889-232.049777z" fill="#3EB9E0" p-id="25775"></path><path d="M119.096889 290.446222l-19.968-175.786666s2.076444-11.662222 8.448-9.187556l183.694222 24.177778L513.422222 416.426667l-93.866666 93.923555-300.487112-219.875555z" fill="#C0DDFF" p-id="25776"></path><path d="M152.120889 290.446222l-19.939556-175.786666s2.048-11.662222 8.448-9.187556l183.665778 24.177778 222.179556 286.776889-93.866667 93.923555-300.487111-219.875555z" fill="#3EB9E0" p-id="25777"></path><path d="M186.197333 149.902222c-5.006222-1.905778-6.741333 7.310222-6.741333 7.310222l8.049778 110.023112 22.755555-87.665778 87.694223-22.840889-111.786667-6.826667z" fill="#FFFFFF" p-id="25778"></path></svg>